<?xml version="1.0" encoding="UTF-8" standalone="no"?>
<!DOCTYPE svg PUBLIC "-//W3C//DTD SVG 1.1//EN"
 "http://www.w3.org/Graphics/SVG/1.1/DTD/svg11.dtd">
<!-- Generated by graphviz version 2.38.0 (20140413.2041)
 -->
<!-- Title: G Pages: 1 -->
<svg width="564pt" height="402pt"
 viewBox="0.00 0.00 564.09 402.00" xmlns="http://www.w3.org/2000/svg" xmlns:xlink="http://www.w3.org/1999/xlink">
<g id="graph0" class="graph" transform="scale(1 1) rotate(0) translate(4 398)">
<title>G</title>
<polygon fill="white" stroke="none" points="-4,4 -4,-398 560.087,-398 560.087,4 -4,4"/>
<g id="clust1" class="cluster"><title>cluster_Global</title>
<path fill="none" stroke="gray" d="M220.087,-8C220.087,-8 536.087,-8 536.087,-8 542.087,-8 548.087,-14 548.087,-20 548.087,-20 548.087,-374 548.087,-374 548.087,-380 542.087,-386 536.087,-386 536.087,-386 220.087,-386 220.087,-386 214.087,-386 208.087,-380 208.087,-374 208.087,-374 208.087,-20 208.087,-20 208.087,-14 214.087,-8 220.087,-8"/>
<text text-anchor="middle" x="378.087" y="-373.2" font-family="Times New Roman,serif" font-size="11.00" fill="gray">Global</text>
</g>
<g id="clust2" class="cluster"><title>cluster_\YaLinqo</title>
<path fill="none" stroke="gray" d="M228.087,-16C228.087,-16 528.087,-16 528.087,-16 534.087,-16 540.087,-22 540.087,-28 540.087,-28 540.087,-346 540.087,-346 540.087,-352 534.087,-358 528.087,-358 528.087,-358 228.087,-358 228.087,-358 222.087,-358 216.087,-352 216.087,-346 216.087,-346 216.087,-28 216.087,-28 216.087,-22 222.087,-16 228.087,-16"/>
<text text-anchor="middle" x="378.087" y="-345.2" font-family="Times New Roman,serif" font-size="11.00" fill="gray">YaLinqo</text>
</g>
<!-- \\YaLinqo\\Enumerable -->
<g id="node1" class="node"><title>\\YaLinqo\\Enumerable</title>
<polygon fill="none" stroke="black" points="308.087,-222 224.087,-222 224.087,-186 308.087,-186 308.087,-222"/>
<text text-anchor="middle" x="266.087" y="-201.2" font-family="Courier,monospace" font-size="11.00">Enumerable</text>
</g>
<!-- \\IteratorAggregate -->
<g id="node8" class="node"><title>\\IteratorAggregate</title>
<ellipse fill="none" stroke="black" cx="76.0433" cy="-204" rx="76.0865" ry="18"/>
<text text-anchor="middle" x="76.0433" y="-200.3" font-family="Times New Roman,serif" font-size="14.00" fill="gray">\IteratorAggregate</text>
</g>
<!-- \\YaLinqo\\Enumerable&#45;&gt;\\IteratorAggregate -->
<g id="edge1" class="edge"><title>\\YaLinqo\\Enumerable&#45;&gt;\\IteratorAggregate</title>
<path fill="none" stroke="black" stroke-dasharray="1,5" d="M223.82,-204C205.713,-204 183.748,-204 162.385,-204"/>
<polygon fill="none" stroke="black" points="162.298,-200.5 152.298,-204 162.298,-207.5 162.298,-200.5"/>
</g>
<!-- \\YaLinqo\\Errors -->
<g id="node2" class="node"><title>\\YaLinqo\\Errors</title>
<polygon fill="none" stroke="black" points="484.587,-330 427.587,-330 427.587,-294 484.587,-294 484.587,-330"/>
<text text-anchor="middle" x="456.087" y="-309.2" font-family="Courier,monospace" font-size="11.00">Errors</text>
</g>
<!-- \\YaLinqo\\Functions -->
<g id="node3" class="node"><title>\\YaLinqo\\Functions</title>
<polygon fill="none" stroke="black" points="494.587,-276 417.587,-276 417.587,-240 494.587,-240 494.587,-276"/>
<text text-anchor="middle" x="456.087" y="-255.2" font-family="Courier,monospace" font-size="11.00">Functions</text>
</g>
<!-- \\YaLinqo\\OrderedEnumerable -->
<g id="node4" class="node"><title>\\YaLinqo\\OrderedEnumerable</title>
<polygon fill="none" stroke="black" points="521.587,-222 390.587,-222 390.587,-186 521.587,-186 521.587,-222"/>
<text text-anchor="middle" x="456.087" y="-201.2" font-family="Courier,monospace" font-size="11.00">OrderedEnumerable</text>
</g>
<!-- \\YaLinqo\\OrderedEnumerable&#45;&gt;\\YaLinqo\\Enumerable -->
<g id="edge2" class="edge"><title>\\YaLinqo\\OrderedEnumerable&#45;&gt;\\YaLinqo\\Enumerable</title>
<path fill="none" stroke="black" d="M390.388,-204C366.914,-204 340.732,-204 318.553,-204"/>
<polygon fill="none" stroke="black" points="318.344,-200.5 308.344,-204 318.344,-207.5 318.344,-200.5"/>
</g>
<!-- \\YaLinqo\\Utils -->
<g id="node5" class="node"><title>\\YaLinqo\\Utils</title>
<polygon fill="none" stroke="black" points="483.087,-168 429.087,-168 429.087,-132 483.087,-132 483.087,-168"/>
<text text-anchor="middle" x="456.087" y="-147.2" font-family="Courier,monospace" font-size="11.00">Utils</text>
</g>
<!-- \\YaLinqo\\EnumerableGeneration -->
<g id="node6" class="node"><title>\\YaLinqo\\EnumerableGeneration</title>
<polygon fill="none" stroke="black" points="532.087,-114 380.087,-114 380.087,-78 532.087,-78 532.087,-114"/>
<text text-anchor="middle" x="456.087" y="-93.2" font-family="Courier,monospace" font-size="11.00">EnumerableGeneration</text>
</g>
<!-- \\YaLinqo\\EnumerablePagination -->
<g id="node7" class="node"><title>\\YaLinqo\\EnumerablePagination</title>
<polygon fill="none" stroke="black" points="532.087,-60 380.087,-60 380.087,-24 532.087,-24 532.087,-60"/>
<text text-anchor="middle" x="456.087" y="-39.2" font-family="Courier,monospace" font-size="11.00">EnumerablePagination</text>
</g>
</g>
</svg>
