<?xml version="1.0" encoding="UTF-8" standalone="no"?>
<!DOCTYPE svg PUBLIC "-//W3C//DTD SVG 1.1//EN"
 "http://www.w3.org/Graphics/SVG/1.1/DTD/svg11.dtd">
<!-- Generated by graphviz version 2.38.0 (20140413.2041)
 -->
<!-- Title: G Pages: 1 -->
<svg width="543pt" height="240pt"
 viewBox="0.00 0.00 543.09 240.00" xmlns="http://www.w3.org/2000/svg" xmlns:xlink="http://www.w3.org/1999/xlink">
<g id="graph0" class="graph" transform="scale(1 1) rotate(0) translate(4 236)">
<title>G</title>
<polygon fill="white" stroke="none" points="-4,4 -4,-236 539.087,-236 539.087,4 -4,4"/>
<g id="clust1" class="cluster"><title>cluster_Global</title>
<path fill="none" stroke="gray" d="M220.087,-8C220.087,-8 515.087,-8 515.087,-8 521.087,-8 527.087,-14 527.087,-20 527.087,-20 527.087,-212 527.087,-212 527.087,-218 521.087,-224 515.087,-224 515.087,-224 220.087,-224 220.087,-224 214.087,-224 208.087,-218 208.087,-212 208.087,-212 208.087,-20 208.087,-20 208.087,-14 214.087,-8 220.087,-8"/>
<text text-anchor="middle" x="367.587" y="-211.2" font-family="Times New Roman,serif" font-size="11.00" fill="gray">Global</text>
</g>
<g id="clust2" class="cluster"><title>cluster_\YaLinqo</title>
<path fill="none" stroke="gray" d="M228.087,-16C228.087,-16 507.087,-16 507.087,-16 513.087,-16 519.087,-22 519.087,-28 519.087,-28 519.087,-184 519.087,-184 519.087,-190 513.087,-196 507.087,-196 507.087,-196 228.087,-196 228.087,-196 222.087,-196 216.087,-190 216.087,-184 216.087,-184 216.087,-28 216.087,-28 216.087,-22 222.087,-16 228.087,-16"/>
<text text-anchor="middle" x="367.587" y="-183.2" font-family="Times New Roman,serif" font-size="11.00" fill="gray">YaLinqo</text>
</g>
<!-- \\YaLinqo\\Enumerable -->
<g id="node1" class="node"><title>\\YaLinqo\\Enumerable</title>
<polygon fill="none" stroke="black" points="308.087,-114 224.087,-114 224.087,-78 308.087,-78 308.087,-114"/>
<text text-anchor="middle" x="266.087" y="-93.2" font-family="Courier,monospace" font-size="11.00">Enumerable</text>
</g>
<!-- \\IteratorAggregate -->
<g id="node5" class="node"><title>\\IteratorAggregate</title>
<ellipse fill="none" stroke="black" cx="76.0433" cy="-96" rx="76.0865" ry="18"/>
<text text-anchor="middle" x="76.0433" y="-92.3" font-family="Times New Roman,serif" font-size="14.00" fill="gray">\IteratorAggregate</text>
</g>
<!-- \\YaLinqo\\Enumerable&#45;&gt;\\IteratorAggregate -->
<g id="edge1" class="edge"><title>\\YaLinqo\\Enumerable&#45;&gt;\\IteratorAggregate</title>
<path fill="none" stroke="black" stroke-dasharray="1,5" d="M223.82,-96C205.713,-96 183.748,-96 162.385,-96"/>
<polygon fill="none" stroke="black" points="162.298,-92.5001 152.298,-96 162.298,-99.5001 162.298,-92.5001"/>
</g>
<!-- \\YaLinqo\\Functions -->
<g id="node2" class="node"><title>\\YaLinqo\\Functions</title>
<polygon fill="none" stroke="black" points="484.087,-168 407.087,-168 407.087,-132 484.087,-132 484.087,-168"/>
<text text-anchor="middle" x="445.587" y="-147.2" font-family="Courier,monospace" font-size="11.00">Functions</text>
</g>
<!-- \\YaLinqo\\OrderedEnumerable -->
<g id="node3" class="node"><title>\\YaLinqo\\OrderedEnumerable</title>
<polygon fill="none" stroke="black" points="511.087,-114 380.087,-114 380.087,-78 511.087,-78 511.087,-114"/>
<text text-anchor="middle" x="445.587" y="-93.2" font-family="Courier,monospace" font-size="11.00">OrderedEnumerable</text>
</g>
<!-- \\YaLinqo\\OrderedEnumerable&#45;&gt;\\YaLinqo\\Enumerable -->
<g id="edge2" class="edge"><title>\\YaLinqo\\OrderedEnumerable&#45;&gt;\\YaLinqo\\Enumerable</title>
<path fill="none" stroke="black" d="M380.003,-96C359.669,-96 337.504,-96 318.238,-96"/>
<polygon fill="none" stroke="black" points="318.159,-92.5001 308.159,-96 318.159,-99.5001 318.159,-92.5001"/>
</g>
<!-- \\YaLinqo\\Utils -->
<g id="node4" class="node"><title>\\YaLinqo\\Utils</title>
<polygon fill="none" stroke="black" points="472.587,-60 418.587,-60 418.587,-24 472.587,-24 472.587,-60"/>
<text text-anchor="middle" x="445.587" y="-39.2" font-family="Courier,monospace" font-size="11.00">Utils</text>
</g>
</g>
</svg>
